<?xml version="1.0" standalone="no"?><!DOCTYPE svg PUBLIC "-//W3C//DTD SVG 1.1//EN" "http://www.w3.org/Graphics/SVG/1.1/DTD/svg11.dtd"><svg t="1549803135110" class="icon" style="" viewBox="0 0 1024 1024" version="1.1" xmlns="http://www.w3.org/2000/svg" p-id="3120" xmlns:xlink="http://www.w3.org/1999/xlink" width="16" height="16"><defs><style type="text/css"></style></defs><path d="M977.152 7.04a21.504 21.504 0 0 0-15.896-7.04H61.448A21.44 21.44 0 0 0 40.104 23.464L125.8 876.8a21.288 21.288 0 0 0 14.528 18.088l385.632 128c2.184 0.768 4.504 1.112 6.776 1.112 2.568 0 5.096-0.472 7.584-1.36l342.784-128a21.32 21.32 0 0 0 13.8-17.84L982.6 23.464a21.24 21.24 0 0 0-5.44-16.424z m-121.648 852.312l-323.2 120.704-365.28-121.264L85.056 42.664H937.52L855.504 859.36z m-65.68-646.016H275.64a21.44 21.44 0 0 0-21.336 23.464l21.424 213.336c1.12 10.88 10.32 19.2 21.336 19.2H722L684.84 709.76l-152.536 56.96-173.84-57.728-18.976-94.504a21.368 21.368 0 0 0-25.2-16.728 21.336 21.336 0 0 0-16.8 25.088l21.432 106.664a21.36 21.36 0 0 0 14.224 16.04l192.816 64c2.184 0.768 4.504 1.12 6.776 1.12 2.568 0 5.096-0.48 7.536-1.368l171.392-64a21.248 21.248 0 0 0 13.632-16.728l42.848-277.336a21.328 21.328 0 0 0-4.928-17.152 21.288 21.288 0 0 0-16.24-7.424H316.48L299.336 256h490.48a21.384 21.384 0 0 0 21.432-21.336c0-11.776-9.6-21.328-21.424-21.328z" fill="#ffffff" p-id="3121"></path></svg>