<?xml version="1.0" standalone="no"?><!DOCTYPE svg PUBLIC "-//W3C//DTD SVG 1.1//EN" "http://www.w3.org/Graphics/SVG/1.1/DTD/svg11.dtd"><svg t="1549803212319" class="icon" style="" viewBox="0 0 1024 1024" version="1.1" xmlns="http://www.w3.org/2000/svg" p-id="4415" xmlns:xlink="http://www.w3.org/1999/xlink" width="16" height="16"><defs><style type="text/css"></style></defs><path d="M64 72.6v873.8h896.2V72.6H64z m37.3 37.3h821.5V909H101.3V109.9z m179.3 167.3c0-2.5 5.2-4.3 8.4-4.3 24.1-1.2 59.3-1.9 96.3-1.9C488.7 271 529 327.8 529 400.4c0 94.9-68.8 135.5-153.2 135.5-14.2 0-19-0.6-28.9-0.6v143.5c0 3.1-1.2 4.3-4.3 4.3h-57.7c-3.1 0-4.3-1.1-4.3-4.2V277.2z m66.3 198.4c8.6 0.6 15.4 0.6 30.2 0.6 43.7 0 84.8-15.4 84.8-74.5 0-47.4-29.3-71.5-79.2-71.5-14.8 0-28.9 0.6-35.7 1.2v144.3l-0.1-0.1z m321.4-44.4c-29.6 0-39.4 14.8-39.4 27.1 0 13.6 6.7 22.8 46.2 43.1 58.6 28.4 77 55.5 77 95.5 0 59.7-45.6 91.9-107.2 91.9-32.7 0-60.5-6.8-76.5-16-2.4-1.2-3-3.1-3-6.2v-54.8c0-3.7 1.8-5 4.3-3.1 23.3 15.4 50.5 22.2 75.1 22.2 29.6 0 41.9-12.3 41.9-29 0-13.6-8.6-25.3-46.2-45-53-25.4-75.2-51.2-75.2-94.4 0-48.1 37.6-88.1 102.9-88.1 32.1 0 54.7 4.9 67 10.4 3.1 1.9 3.7 4.9 3.7 7.4v51.2c0 3.1-1.9 5-5.6 3.7-16.6-9.9-41.1-16-65.1-16l0.1 0.1z" fill="#ffffff" p-id="4416"></path></svg>